<svg version="1.0" xmlns="http://www.w3.org/2000/svg" width="93.333" height="93.333" viewBox="0 0 70 70"><path d="M29.8 22.1C25.7 26.5 25 29 27.7 29c1.2 0 .8.7-1.4 2.8-2.5 2.2-2.9 3.1-2.2 4.5.6 1 1.6 1.5 2.2 1.1.7-.3-.1.5-1.7 2-1.6 1.4-2.5 2.6-2 2.6s.3.4-.5.9c-2.5 1.6-.1 3.1 5 3.1 3.4 0 4.8.4 4.6 1.3-.1.6-.6 1.5-1 1.8-.4.3-.5 1.2-.2 2.1.4 1 2 1.4 5.1 1.4 4.7-.1 4.8-.3 2.9-4.8-.6-1.4.1-1.7 4.6-2 2.9-.2 5.4-.8 5.6-1.3.2-.6-.8-2.3-2.2-3.8-2.2-2.3-2.3-2.8-1.1-3.3 2.2-.8 2-1.7-1-5-1.6-1.6-2.2-3-1.5-3.2.6-.2 1.1-1 1.1-1.7 0-1.9-7.3-9.5-9.1-9.5-.8 0-3.1 1.9-5.1 4.1z"/></svg>