<?xml version="1.0" standalone="no"?>
<!DOCTYPE svg PUBLIC "-//W3C//DTD SVG 20010904//EN"
 "http://www.w3.org/TR/2001/REC-SVG-20010904/DTD/svg10.dtd">
<svg version="1.0" xmlns="http://www.w3.org/2000/svg"
 width="70.000000pt" height="70.000000pt" viewBox="0 0 70.000000 70.000000"
 preserveAspectRatio="xMidYMid meet">
<metadata>
Created by potrace 1.14, written by Peter Selinger 2001-2017
</metadata>
<g transform="translate(0.000000,70.000000) scale(0.100000,-0.100000)"
fill="#000000" stroke="none">
<path d="M298 479 c-41 -44 -48 -69 -21 -69 12 0 8 -7 -14 -28 -25 -22 -29
-31 -22 -45 6 -10 16 -15 22 -11 7 3 -1 -5 -17 -20 -16 -14 -25 -26 -20 -26 5
0 3 -4 -5 -9 -25 -16 -1 -31 50 -31 34 0 48 -4 46 -13 -1 -6 -6 -15 -10 -18
-4 -3 -5 -12 -2 -21 4 -10 20 -14 51 -14 47 1 48 3 29 48 -6 14 1 17 46 20 29
2 54 8 56 13 2 6 -8 23 -22 38 -22 23 -23 28 -11 33 22 8 20 17 -10 50 -16 16
-22 30 -15 32 6 2 11 10 11 17 0 19 -73 95 -91 95 -8 0 -31 -19 -51 -41z"/>
</g>
</svg>
